# xmcd
#
# Track frame offsets:
#	150
#	11792
#	25254
#	34742
#	45129
#	55798
#	65511
#	77323
#	86062
#	96899
#	106724
#	115923
#
# Disc length: 1701 seconds
#
# Revision: 1
# Processed by: cddbd v1.5.2PL0 Copyright (c) Steve Scherf et al.
# Submitted via: audiograbber 1.83.01
#
DISCID=8506a30c
DTITLE=Vince and The Sun Boppers - Gone For Lovin'
DYEAR=2016
DGENRE=Rockabilly
TTITLE0=Bad Boy Rock
TTITLE1=Black Haired Woman
TTITLE2=Bunny Love
TTITLE3=Dance With Sally
TTITLE4=Devil Eyes
TTITLE5=Gone For Lovin'
TTITLE6=Mama Little Chicky
TTITLE7=I'm Longing For You
TTITLE8=It's You
TTITLE9=Lone No More
TTITLE10=Ooh My Baby
TTITLE11=You Gotta Be Mine
EXTD=
EXTT0=
EXTT1=
EXTT2=
EXTT3=
EXTT4=
EXTT5=
EXTT6=
EXTT7=
EXTT8=
EXTT9=
EXTT10=
EXTT11=
PLAYORDER=
